<?xml version="1.0" encoding="UTF-8" standalone="no"?><!DOCTYPE svg PUBLIC "-//W3C//DTD SVG 1.1//EN" "http://www.w3.org/Graphics/SVG/1.1/DTD/svg11.dtd"><svg width="100%" height="100%" viewBox="0 0 4267 4267" version="1.1" xmlns="http://www.w3.org/2000/svg" xmlns:xlink="http://www.w3.org/1999/xlink" xml:space="preserve" xmlns:serif="http://www.serif.com/" style="fill-rule:evenodd;clip-rule:evenodd;stroke-linejoin:round;stroke-miterlimit:2;"><path d="M2196.259,14.718l2007.476,1011.736c38.942,19.629 62.932,55.89 62.932,95.143l0,2023.473c0,39.253 -23.99,75.52 -62.932,95.143l-2007.476,1011.731c-38.942,19.629 -86.909,19.629 -125.851,0l-2007.476,-1011.731c-38.942,-19.629 -62.932,-55.89 -62.932,-95.143l0,-2023.473c0,-39.253 23.99,-75.52 62.932,-95.143l2007.476,-1011.736c38.942,-19.624 86.909,-19.624 125.851,0Zm-27.25,239.989c-22.072,-11.129 -49.279,-11.129 -71.351,0c-236.323,119.103 -1573.939,793.24 -1810.262,912.343c-22.072,11.129 -35.675,31.687 -35.682,53.941l0,1824.692c0,22.254 13.603,42.812 35.682,53.941c236.323,119.103 1573.939,793.24 1810.262,912.343c22.072,11.129 49.279,11.129 71.351,0c236.323,-119.103 1573.939,-793.24 1810.268,-912.343c22.072,-11.129 35.669,-31.687 35.675,-53.941l0,-1824.692c0,-22.254 -13.597,-42.812 -35.675,-53.941c-236.323,-119.103 -1573.939,-793.24 -1810.268,-912.343Z" style="fill:#8c0693;"/><path d="M3486.613,3184.291c-105.505,162.217 -201.421,245.945 -287.742,251.178c-52.749,3.137 -115.693,-22.502 -188.826,-76.924c-436.407,-329.673 -872.215,-759.29 -1307.428,-1288.856c-40.767,124.547 -110.899,297.229 -210.409,518.059c-91.122,200.941 -160.66,343.276 -208.615,427.003c-26.378,46.046 -52.749,69.072 -79.127,69.072c-14.389,0 -32.372,-6.804 -53.956,-20.407c-77.927,-51.284 -116.893,-93.669 -116.893,-127.16c0,-19.888 7.194,-45.004 21.577,-75.352c31.172,-60.702 64.144,-142.34 98.91,-244.903c1.2,-26.163 2.4,-51.808 3.594,-76.924c2.4,-17.793 12.595,-28.782 30.578,-32.962c15.583,-3.137 49.755,30.348 102.504,100.468c91.122,-168.498 193.026,-390.369 305.725,-665.62c-64.744,-86.865 -97.11,-140.239 -97.11,-160.122c0,-24.073 56.95,-40.295 170.849,-48.665c50.355,-127.679 105.505,-290.949 165.448,-489.795c-196.62,64.892 -342.891,120.356 -438.808,166.408c-147.465,70.12 -263.758,153.318 -348.886,249.606c-35.972,39.766 -53.956,85.823 -53.956,138.149c0,40.819 22.784,120.88 68.338,240.194c13.189,34.533 1.8,51.803 -34.166,51.803c-22.784,0 -41.961,-10.465 -57.55,-31.396c-69.538,-91.05 -124.688,-183.677 -165.448,-277.865c-28.778,-64.892 -43.167,-106.754 -43.167,-125.589c0,-53.374 42.561,-114.076 127.688,-182.106c242.181,-194.661 571.29,-346.937 987.32,-456.828c5.988,-9.418 14.983,-46.57 26.972,-111.462c9.595,-50.237 23.977,-74.31 43.161,-72.215c22.784,3.137 59.35,46.046 109.705,128.732c274.553,-57.559 446.596,-84.252 516.134,-80.061c107.905,6.28 191.232,72.733 249.982,199.375c73.133,45.004 121.087,82.675 143.865,113.028c32.372,39.771 48.561,93.145 48.561,160.128c0,116.166 -81.527,262.685 -244.581,439.558c-166.655,181.058 -309.926,271.585 -429.819,271.585c-65.938,0 -127.088,-13.608 -183.431,-40.819c-43.161,-25.116 -86.321,-50.231 -129.488,-75.352c-16.777,-9.418 -25.178,-20.407 -25.178,-32.962c0,-27.211 19.783,-40.819 59.35,-40.819c9.595,0 29.972,4.444 61.144,13.344c31.172,8.894 58.75,13.344 82.727,13.344c118.693,0 252.97,-84.252 402.835,-252.749c135.476,-150.704 203.215,-275.77 203.215,-375.201c0,-120.356 -95.91,-180.529 -287.736,-180.529c-160.66,0 -337.497,33.491 -530.523,100.468c-55.149,209.317 -122.294,414.967 -201.421,616.955c236.193,308.742 504.752,607.538 805.683,896.391c322.508,307.695 542.512,465.203 660.005,472.531c49.155,3.137 99.51,-12.561 151.066,-47.094c21.577,-15.703 41.367,-23.55 59.35,-23.55c23.977,0 35.966,9.941 35.966,29.83c0,13.603 -5.994,29.301 -17.983,47.094l-0.006,-0.016Z" style="fill:#8c0693;fill-rule:nonzero;"/></svg>