<?xml version="1.0" encoding="UTF-8" standalone="no"?>
<!DOCTYPE svg PUBLIC "-//W3C//DTD SVG 1.1//EN" "http://www.w3.org/Graphics/SVG/1.1/DTD/svg11.dtd">
<svg width="100%" height="100%" viewBox="0 0 1024 1024" version="1.1" xmlns="http://www.w3.org/2000/svg" xmlns:xlink="http://www.w3.org/1999/xlink" xml:space="preserve" xmlns:serif="http://www.serif.com/" style="fill-rule:evenodd;clip-rule:evenodd;stroke-linejoin:round;stroke-miterlimit:2;">
    <path d="M523.815,47.591l384.467,221.972c7.311,4.221 11.815,12.022 11.815,20.464l0,443.944c0,8.442 -4.504,16.243 -11.815,20.464l-384.467,221.972c-7.311,4.221 -16.319,4.221 -23.63,0l-384.467,-221.972c-7.311,-4.221 -11.815,-12.022 -11.815,-20.464l-0,-443.944c-0,-8.442 4.504,-16.243 11.815,-20.464l384.467,-221.972c7.311,-4.221 16.319,-4.221 23.63,-0Zm-5.654,51.307c-3.812,-2.201 -8.509,-2.201 -12.322,0l-348.515,201.215c-3.812,2.201 -6.161,6.269 -6.161,10.671l0,402.43c-0,4.402 2.349,8.47 6.161,10.671l348.515,201.215c3.812,2.201 8.509,2.201 12.322,-0l348.515,-201.215c3.812,-2.201 6.161,-6.269 6.161,-10.671l-0,-402.43c0,-4.402 -2.349,-8.47 -6.161,-10.671l-348.515,-201.215Z" style="fill:url(#_Linear1);"/>
    <path d="M736.011,711.291c-17.464,30.761 -33.341,46.638 -47.63,47.63c-8.732,0.595 -19.151,-4.267 -31.257,-14.587c-72.239,-62.515 -144.379,-143.983 -216.42,-244.403c-6.748,23.617 -18.358,56.363 -34.83,98.238c-15.083,38.104 -26.594,65.095 -34.532,80.972c-4.366,8.732 -8.732,13.098 -13.098,13.098c-2.382,0 -5.358,-1.29 -8.931,-3.87c-12.9,-9.725 -19.35,-17.762 -19.35,-24.113c0,-3.771 1.191,-8.534 3.572,-14.289c5.16,-11.511 10.618,-26.991 16.373,-46.44c0.198,-4.961 0.397,-9.824 0.595,-14.587c0.397,-3.374 2.084,-5.458 5.061,-6.251c2.58,-0.595 8.236,5.755 16.968,19.052c15.083,-31.952 31.952,-74.025 50.607,-126.22c-10.717,-16.472 -16.075,-26.594 -16.075,-30.364c0,-4.565 9.427,-7.641 28.281,-9.228c8.335,-24.212 17.464,-55.172 27.387,-92.879c-32.547,12.305 -56.759,22.823 -72.636,31.555c-24.411,13.297 -43.661,29.074 -57.752,47.333c-5.954,7.541 -8.931,16.274 -8.931,26.197c0,7.74 3.771,22.922 11.312,45.547c2.183,6.549 0.298,9.824 -5.656,9.824c-3.771,0 -6.946,-1.985 -9.526,-5.954c-11.511,-17.266 -20.64,-34.83 -27.387,-52.691c-4.763,-12.305 -7.145,-20.243 -7.145,-23.815c0,-10.121 7.045,-21.632 21.136,-34.532c40.089,-36.914 94.566,-65.789 163.432,-86.628c0.992,-1.786 2.481,-8.831 4.465,-21.136c1.588,-9.526 3.969,-14.091 7.145,-13.694c3.771,0.595 9.824,8.732 18.159,24.411c45.447,-10.915 73.926,-15.976 85.437,-15.182c17.861,1.191 31.654,13.793 41.379,37.807c12.106,8.534 20.044,15.678 23.815,21.434c5.358,7.541 8.038,17.663 8.038,30.364c0,22.029 -13.495,49.813 -40.486,83.353c-27.586,34.334 -51.302,51.5 -71.148,51.5c-10.915,0 -21.037,-2.58 -30.364,-7.74c-7.145,-4.763 -14.289,-9.526 -21.434,-14.289c-2.778,-1.786 -4.168,-3.87 -4.168,-6.251c0,-5.16 3.275,-7.74 9.824,-7.74c1.588,0 4.961,0.843 10.121,2.53c5.16,1.687 9.725,2.53 13.694,2.53c19.648,0 41.875,-15.976 66.682,-47.928c22.426,-28.578 33.639,-52.294 33.639,-71.148c0,-22.823 -15.877,-34.234 -47.63,-34.234c-26.594,0 -55.866,6.351 -87.818,19.052c-9.129,39.692 -20.243,78.689 -33.341,116.992c39.097,58.546 83.552,115.206 133.365,169.981c53.386,58.347 89.803,88.215 109.252,89.605c8.137,0.595 16.472,-2.382 25.006,-8.931c3.572,-2.977 6.847,-4.465 9.824,-4.465c3.969,0 5.954,1.885 5.954,5.656c0,2.58 -0.992,5.557 -2.977,8.931Z" style="fill:url(#_Linear2);fill-rule:nonzero;"/>
    <defs>
        <linearGradient id="_Linear1" x1="0" y1="0" x2="1" y2="0" gradientUnits="userSpaceOnUse" gradientTransform="matrix(889.254904,-0,0,889.254904,67.372548,512.000001)"><stop offset="0" style="stop-color:#ff7d8a;stop-opacity:1"/><stop offset="0.31" style="stop-color:#fe808d;stop-opacity:1"/><stop offset="0.46" style="stop-color:#fb97a1;stop-opacity:1"/><stop offset="0.9" style="stop-color:#fd8994;stop-opacity:1"/><stop offset="1" style="stop-color:#eeefec;stop-opacity:1"/></linearGradient>
        <linearGradient id="_Linear2" x1="0" y1="0" x2="1" y2="0" gradientUnits="userSpaceOnUse" gradientTransform="matrix(426.291453,0,0,497.736948,252.265857,504.098778)"><stop offset="0" style="stop-color:#ff7d8a;stop-opacity:1"/><stop offset="0.37" style="stop-color:#fb99a2;stop-opacity:1"/><stop offset="0.54" style="stop-color:#fb9ba4;stop-opacity:1"/><stop offset="0.62" style="stop-color:#fa9fa7;stop-opacity:1"/><stop offset="0.68" style="stop-color:#f9a2aa;stop-opacity:1"/><stop offset="0.83" style="stop-color:#f6b8bd;stop-opacity:1"/><stop offset="1" style="stop-color:#eeefec;stop-opacity:1"/></linearGradient>
    </defs>
</svg>
