<?xml version="1.0" encoding="UTF-8" standalone="no"?><!DOCTYPE svg PUBLIC "-//W3C//DTD SVG 1.1//EN" "http://www.w3.org/Graphics/SVG/1.1/DTD/svg11.dtd"><svg width="100%" height="100%" viewBox="0 0 4267 4267" version="1.1" xmlns="http://www.w3.org/2000/svg" xmlns:xlink="http://www.w3.org/1999/xlink" xml:space="preserve" xmlns:serif="http://www.serif.com/" style="fill-rule:evenodd;clip-rule:evenodd;stroke-linecap:round;stroke-linejoin:round;stroke-miterlimit:1.5;"><path d="M2196.259,14.718l2007.476,1011.736c38.942,19.629 62.932,55.89 62.932,95.143l0,2023.473c0,39.253 -23.99,75.52 -62.932,95.143l-2007.476,1011.731c-38.942,19.629 -86.909,19.629 -125.851,0l-2007.476,-1011.731c-38.942,-19.629 -62.932,-55.89 -62.932,-95.143l0,-2023.473c0,-39.253 23.99,-75.52 62.932,-95.143l2007.476,-1011.736c38.942,-19.624 86.909,-19.624 125.851,0Zm-27.25,239.989c-22.072,-11.129 -49.279,-11.129 -71.351,0c-236.323,119.103 -1573.939,793.24 -1810.262,912.343c-22.072,11.129 -35.675,31.687 -35.682,53.941l0,1824.692c0,22.254 13.603,42.812 35.682,53.941c236.323,119.103 1573.939,793.24 1810.262,912.343c22.072,11.129 49.279,11.129 71.351,0c236.323,-119.103 1573.939,-793.24 1810.268,-912.343c22.072,-11.129 35.669,-31.687 35.675,-53.941l0,-1824.692c0,-22.254 -13.597,-42.812 -35.675,-53.941c-236.323,-119.103 -1573.939,-793.24 -1810.268,-912.343Z" style="fill:#fa7c91;"/><path d="M2133.333,3422.222l-0,-1505.52" style="fill:none;stroke:#fa7c91;stroke-width:270.42px;"/><path d="M2133.333,883.333l722.222,1250c-356.575,-143.222 -538.507,-214.649 -722.222,-216.631c-191.12,-2.062 -384.169,71.031 -777.778,216.631l777.778,-1250Z" style="fill:#fa7c91;stroke:#fa7c91;stroke-width:270.42px;"/></svg>